{"title":"Dragonheart 3 The Sorcerers Curse 2015 Movies HDRip XViD ~ â˜»rDXâ˜»","uid":11692343,"size":740660824,"categoryP":"video","categoryS":"movies","magnet":"?xt=urn:btih:b02ca19e361af299c9cc801e088e77a895d984ca&amp;dn=Dragonheart+3+The+Sorcerers+Curse+2015+Movies+HDRip+XViD+%7E+%E2%98%BBrDX%E2%98%BB&amp;tr=udp%3A%2F%2Ftracker.openbittorrent.com%3A80&amp;tr=udp%3A%2F%2Fopen.demonii.com%3A1337&amp;tr=udp%3A%2F%2Ftracker.coppersurfer.tk%3A6969&amp;tr=udp%3A%2F%2Fexodus.desync.com%3A6969","seeders":13,"leechers":5,"uploader":"basicssom","files":2,"time":1423590167,"description":"----------------------------------------------------------------\nDragonheart 3 The Sorcerers Curse 2015 English Movies HDRip XViD AAC with Sample ~ â˜»rDXâ˜»\n\nSCREEN SHOTS &amp; POSTER:\n &lt;a href=&quot;\nhttp://istoreimg.co.nr/2015/2/Dragonheart3/11.html&quot; rel=&quot;nofollow&quot; target=&quot;_NEW&quot;&gt;\nhttp://istoreimg.co.nr/2015/2/Dragonheart3/11.html&lt;/a&gt; &lt;a href=&quot;\nhttp://istoreimg.co.nr/2015/2/Dragonheart3/1.html&quot; rel=&quot;nofollow&quot; target=&quot;_NEW&quot;&gt;\nhttp://istoreimg.co.nr/2015/2/Dragonheart3/1.html&lt;/a&gt; &lt;a href=&quot;\nhttp://istoreimg.co.nr/2015/2/Dragonheart3/2.html&quot; rel=&quot;nofollow&quot; target=&quot;_NEW&quot;&gt;\nhttp://istoreimg.co.nr/2015/2/Dragonheart3/2.html&lt;/a&gt; &lt;a href=&quot;\nhttp://istoreimg.co.nr/2015/2/Dragonheart3/3.html&quot; rel=&quot;nofollow&quot; target=&quot;_NEW&quot;&gt;\nhttp://istoreimg.co.nr/2015/2/Dragonheart3/3.html&lt;/a&gt; &lt;a href=&quot;\nhttp://istoreimg.co.nr/2015/2/Dragonheart3/4.html&quot; rel=&quot;nofollow&quot; target=&quot;_NEW&quot;&gt;\nhttp://istoreimg.co.nr/2015/2/Dragonheart3/4.html&lt;/a&gt; &lt;a href=&quot;\nhttp://istoreimg.co.nr/2015/2/Dragonheart3/5.html&quot; rel=&quot;nofollow&quot; target=&quot;_NEW&quot;&gt;\nhttp://istoreimg.co.nr/2015/2/Dragonheart3/5.html&lt;/a&gt; &lt;a href=&quot;\nhttp://istoreimg.co.nr/2015/2/Dragonheart3/6.html&quot; rel=&quot;nofollow&quot; target=&quot;_NEW&quot;&gt;\nhttp://istoreimg.co.nr/2015/2/Dragonheart3/6.html&lt;/a&gt; &lt;a href=&quot;\nhttp://istoreimg.co.nr/2015/2/Dragonheart3/7.html&quot; rel=&quot;nofollow&quot; target=&quot;_NEW&quot;&gt;\nhttp://istoreimg.co.nr/2015/2/Dragonheart3/7.html&lt;/a&gt; &lt;a href=&quot;\nhttp://istoreimg.co.nr/2015/2/Dragonheart3/8.html&quot; rel=&quot;nofollow&quot; target=&quot;_NEW&quot;&gt;\nhttp://istoreimg.co.nr/2015/2/Dragonheart3/8.html&lt;/a&gt; &lt;a href=&quot;\nhttp://istoreimg.co.nr/2015/2/Dragonheart3/9.html&quot; rel=&quot;nofollow&quot; target=&quot;_NEW&quot;&gt;\nhttp://istoreimg.co.nr/2015/2/Dragonheart3/9.html&lt;/a&gt; &lt;a href=&quot;\nhttp://istoreimg.co.nr/2015/2/Dragonheart3/10.html&quot; rel=&quot;nofollow&quot; target=&quot;_NEW&quot;&gt;\nhttp://istoreimg.co.nr/2015/2/Dragonheart3/10.html&lt;/a&gt;\n\nFormat                                   : Matroska\nFormat version                           : Version 4 / Version 2\nFile size                                : 699 MiB\nOverall bit rate mode                    : Variable\nOverall bit rate                         : 1 011 Kbps\nMovie name                               : Dragonheart 3 The Sorcerers Curse 2015 English Movies HDRip XViD AAC ~ rDX ~\n\nVideo\nID                                       : 1\nFormat                                   : MPEG-4 Visual\nFormat profile                           : Advanced Simple@L5\nFormat settings, BVOP                    : Yes\nFormat settings, QPel                    : Yes\nFormat settings, GMC                     : No warppoints\nFormat settings, Matrix                  : Default (H.263)\nCodec ID                                 : V_MS/VFW/FOURCC / XVID\nCodec ID/Hint                            : XviD\nBit rate                                 : 900 Kbps\nWidth                                    : 640 pixels\nHeight                                   : 352 pixels\nDisplay aspect ratio                     : 16:9\nFrame rate mode                          : Constant\nFrame rate                               : 23.976 fps\nColor space                              : YUV\nChroma subsampling                       : 4:2:0\nBit depth                                : 8 bits\nScan type                                : Progressive\nCompression mode                         : Lossy\nBits/(Pixel*Frame)                       : 0.167\nStream size                              : 622 MiB (89%)\nTitle                                    : ~ rDX ~\nWriting library                          : XviD 1.2.1 (UTC 2008-12-04)\nDefault                                  : Yes\nForced                                   : No\n\nAudio\nID                                       : 2\nFormat                                   : MPEG Audio\nFormat version                           : Version 1\nFormat profile                           : Layer 3\nMode                                     : Joint stereo\nMode extension                           : MS Stereo\nCodec ID                                 : A_MPEG/L3\nCodec ID/Hint                            : MP3\nBit rate mode                            : Variable\nBit rate                                 : 91.1 Kbps\nNominal bit rate                         : 96.0 Kbps\nChannel(s)                               : 2 channels\nSampling rate                            : 32.0 KHz\nCompression mode                         : Lossy\nStream size                              : 63.3 MiB (9%)\nTitle                                    : ~ rDX ~\nWriting library                          : LAME3.99r\nEncoding settings                        : -m j -V 4 -q 2 -lowpass 15.1 --abr 96\nDefault                                  : Yes\nForced                                   : No","torrent":{"xt":"urn:btih:b02ca19e361af299c9cc801e088e77a895d984ca","amp;dn":"Dragonheart+3+The+Sorcerers+Curse+2015+Movies+HDRip+XViD+%7E+%E2%98%BBrDX%E2%98%BB","amp;tr":["udp%3A%2F%2Ftracker.openbittorrent.com%3A80","udp%3A%2F%2Fopen.demonii.com%3A1337","udp%3A%2F%2Ftracker.coppersurfer.tk%3A6969","udp%3A%2F%2Fexodus.desync.com%3A6969"],"infoHash":"b02ca19e361af299c9cc801e088e77a895d984ca","infoHashBuffer":{"type":"Buffer","data":[176,44,161,158,54,26,242,153,201,204,128,30,8,142,119,168,149,217,132,202]},"announce":[],"urlList":[]}}